PathFileType	4	(X/Y/Z)	c:/Users/goper/Files/vsCode/490R/osim_files/C15/C15_Fast_06.trc
DataRate	CameraRate	NumFrames	NumMarkers	Units                	OrigDataRate	OrigDataStartFrame	OrigNumFrames
250.00	250.00	6	36	mm	250.0	1624	2165
                Frame#	Time	LPSIS			LASIS			LTH1			LTH2			LTH3			LTH4			LLFE			LMFE			LSH1			LSH2			LSH3			LSH4			LLMAL			LMMAL			LCAL			LMTP5			LTOE			LMTP1			RPSIS			RASIS			RTH1			RTH2			RTH3			RTH4			RLFE			RMFE			RSH1			RSH2			RSH3			RSH4			RLMAL			RMMAL			RCAL			RMTP1			RTOE			RMTP5		
		X1	Y1	Z1	X2	Y2	Z2	X3	Y3	Z3	X4	Y4	Z4	X5	Y5	Z5	X6	Y6	Z6	X7	Y7	Z7	X8	Y8	Z8	X9	Y9	Z9	X10	Y10	Z10	X11	Y11	Z11	X12	Y12	Z12	X13	Y13	Z13	X14	Y14	Z14	X15	Y15	Z15	X16	Y16	Z16	X17	Y17	Z17	X18	Y18	Z18	X19	Y19	Z19	X20	Y20	Z20	X21	Y21	Z21	X22	Y22	Z22	X23	Y23	Z23	X24	Y24	Z24	X25	Y25	Z25	X26	Y26	Z26	X27	Y27	Z27	X28	Y28	Z28	X29	Y29	Z29	X30	Y30	Z30	X31	Y31	Z31	X32	Y32	Z32	X33	Y33	Z33	X34	Y34	Z34	X35	Y35	Z35	X36	Y36	Z36

1624	6.49200	-3028.64404	1016.71710	268.67346	-3196.18213	998.50055	319.08432	-3226.30444	610.52319	399.59003	0.00000	0.00000	0.00000	-3271.72681	635.63873	394.52774	-3287.26636	593.55151	385.62808	-3280.81641	509.65601	364.93408	-3281.16504	488.96185	242.75298	-3316.39795	408.50598	379.72656	-3325.21558	365.11447	384.25839	0.00000	0.00000	0.00000	-3276.07056	346.50754	383.99081	-3405.46313	110.96265	332.70850	-3417.24438	147.11490	244.96793	0.00000	0.00000	0.00000	0.00000	0.00000	0.00000	-3576.12671	161.18082	298.41022	-3553.81982	121.48558	239.02962	0.00000	0.00000	0.00000	-3167.08740	991.81409	71.65379	0.00000	0.00000	0.00000	0.00000	0.00000	0.00000	-3125.41138	621.53815	50.90304	-3111.93188	575.76044	57.49368	-3048.33252	491.20828	75.99100	-3029.48389	481.79404	193.74590	-2941.07471	404.36093	62.56715	-2931.36206	361.80704	61.24476	-2996.99536	380.63922	63.29797	-2980.99536	344.61935	58.02913	-2885.99194	101.15200	138.00487	-2924.27222	123.83141	223.12254	-2823.17139	78.32791	181.86258	-3025.17993	50.06736	218.47281	-3060.93408	67.49718	165.14551	-2998.34644	43.34007	99.33740
1625	6.49600	-3032.03564	1016.42236	267.92920	-3201.15405	997.78625	319.24512	-3232.24390	611.54456	403.61935	0.00000	0.00000	0.00000	-3275.00806	634.87177	394.47388	-3291.63940	592.71533	385.95697	-3285.26904	508.69958	364.83771	-3286.10083	488.61163	242.57997	-3321.56396	408.04395	379.06909	-3332.44629	363.63242	381.09576	0.00000	0.00000	0.00000	-3281.30640	345.75906	382.47458	-3413.96509	111.02912	331.54517	-3424.64819	147.17264	243.23364	0.00000	0.00000	0.00000	0.00000	0.00000	0.00000	-3583.71729	164.04865	296.91016	-3561.70117	124.01749	237.58459	0.00000	0.00000	0.00000	-3171.20361	991.06018	71.66612	0.00000	0.00000	0.00000	0.00000	0.00000	0.00000	-3128.99756	620.93567	50.71040	-3115.06299	575.09540	57.34128	-3051.60864	490.76376	76.01588	-3031.42285	481.24341	193.97118	-2943.58887	404.65558	62.49602	-2933.57520	362.18942	61.14808	-2999.55786	380.41788	63.41161	-2983.28442	344.63974	58.15354	-2886.35034	101.66833	137.98119	-2924.73071	124.17054	223.12184	-2823.66235	79.13695	182.96249	-3025.24365	50.06937	218.47757	-3060.97314	67.42112	165.11430	-2998.30396	43.30151	99.31482
1626	6.50000	-3036.82300	1015.55792	268.43564	-3205.95264	997.02026	319.37656	-3236.67603	610.86060	403.51828	0.00000	0.00000	0.00000	-3282.41724	635.41919	397.84143	-3296.17871	592.34113	386.01480	-3289.64600	507.80246	364.74863	-3291.04028	488.23770	242.47244	-3326.81299	407.58163	378.37933	-3336.80103	363.62381	380.17383	0.00000	0.00000	0.00000	-3287.61060	344.72131	382.44763	-3421.62476	111.33218	330.43829	-3431.85278	147.68436	242.25963	0.00000	0.00000	0.00000	0.00000	0.00000	0.00000	-3591.45801	166.36751	294.28598	-3569.09180	126.21345	236.20859	0.00000	0.00000	0.00000	-3181.08447	992.15497	73.03056	-3067.18286	625.29272	41.66016	0.00000	0.00000	0.00000	-3132.58179	620.33246	50.48907	-3118.58838	574.52271	57.18290	-3054.98389	490.30923	76.03761	-3034.99438	480.72583	194.03670	-2946.54712	404.71414	62.83311	-2936.08545	362.42593	61.27574	-3002.23413	380.23373	63.53750	-2985.83374	344.67331	58.20574	-2886.76221	102.23138	137.96349	-2925.26221	124.57214	223.14818	-2823.93604	79.80354	182.91922	-3025.24561	50.02542	218.42096	-3061.00342	67.32372	165.09058	-2998.27271	43.27697	99.33220
1627	6.50400	-3041.64795	1014.72321	268.85297	-3210.87964	996.28058	319.60663	0.00000	0.00000	0.00000	0.00000	0.00000	0.00000	-3286.78735	634.61475	397.84503	-3300.67700	591.34717	386.35892	-3294.08276	507.04733	364.61755	-3296.45776	488.03561	242.32243	-3332.10498	407.12738	377.73309	-3342.20850	363.94070	383.11682	0.00000	0.00000	0.00000	-3293.07202	343.92639	381.56589	0.00000	0.00000	0.00000	-3438.97681	148.70947	241.95781	0.00000	0.00000	0.00000	0.00000	0.00000	0.00000	-3597.68750	168.05959	293.02420	-3575.99707	128.00279	234.89426	0.00000	0.00000	0.00000	-3185.46753	991.46545	73.17915	0.00000	0.00000	0.00000	0.00000	0.00000	0.00000	-3136.31519	619.74542	50.34394	-3121.89893	573.36243	56.48198	-3058.49219	489.82800	76.11224	0.00000	0.00000	0.00000	-2949.26147	405.04599	62.78286	-2938.64966	362.76868	61.35060	-3004.90015	379.96616	63.68584	-2988.80469	344.29675	59.94633	-2890.69263	104.59210	137.05444	-2925.69800	124.90639	223.16483	-2824.10840	80.51854	182.84575	-3025.31201	50.05835	218.39436	-3061.03442	67.25872	165.06253	-2998.29541	43.29564	99.30134
1628	6.50800	-3044.04785	1014.64783	269.02246	-3215.76099	995.57715	319.77542	0.00000	0.00000	0.00000	0.00000	0.00000	0.00000	-3291.18164	633.79327	397.79999	-3305.17554	590.95148	386.29221	-3297.14624	505.85809	363.84467	-3301.99658	487.86197	242.10312	-3337.15845	406.51321	377.13257	-3346.72241	362.25720	377.91013	0.00000	0.00000	0.00000	-3297.95532	343.47806	380.05460	0.00000	0.00000	0.00000	-3445.22974	148.81456	240.91295	0.00000	0.00000	0.00000	0.00000	0.00000	0.00000	-3603.47656	170.04878	292.83560	-3582.29956	129.23592	233.70177	0.00000	0.00000	0.00000	-3189.99365	990.83502	73.34680	0.00000	0.00000	0.00000	0.00000	0.00000	0.00000	-3140.19043	619.15186	50.23229	-3125.47168	572.75531	56.39646	-3062.06616	489.33722	76.14289	0.00000	0.00000	0.00000	-2952.38916	405.15421	63.08208	-2941.38062	362.93744	61.66965	-3007.70801	379.71136	63.83989	-2991.36035	344.23816	60.00034	-2887.69995	103.49827	137.82379	-2926.22827	125.34508	223.14967	-2826.11646	80.69593	182.86546	-3025.37329	50.06150	218.33366	-3061.06348	67.17901	165.00929	-2998.26831	43.29169	99.30861
1629	6.51200	-3051.21802	1013.21082	269.79602	-3220.77100	994.90607	319.98987	0.00000	0.00000	0.00000	-3264.58057	565.15576	386.59760	-3295.57227	632.95026	397.73218	-3309.89307	590.10925	386.59262	-3301.98364	505.33603	363.63934	-3307.68188	487.76532	241.93944	-3342.39673	405.89627	376.64053	-3352.77075	361.97595	378.20114	0.00000	0.00000	0.00000	-3302.08350	342.90182	379.16800	0.00000	0.00000	0.00000	-3451.01733	148.69162	239.83031	0.00000	0.00000	0.00000	0.00000	0.00000	0.00000	-3609.06787	171.08553	291.62860	-3588.09644	130.06737	232.53275	0.00000	0.00000	0.00000	-3194.51440	990.13428	73.50280	-3078.46216	624.02155	42.02752	0.00000	0.00000	0.00000	-3144.18506	618.58771	50.14313	-3129.30347	572.22974	56.34414	-3065.85181	488.87137	76.19852	-3046.82227	479.18008	194.20444	-2953.58105	405.50439	62.10515	-2944.07495	363.45987	61.58122	-3010.65308	379.43900	64.01407	-2991.49731	345.04678	58.47957	-2888.18018	104.19801	137.73647	-2926.88086	125.93517	223.08739	-2826.16333	81.72516	182.41972	-3025.44116	50.08984	218.25752	-3061.13745	67.15121	164.97565	-2998.31177	43.33417	99.32027
